<svg width="242" height="147" viewBox="0 0 242 147" fill="none" xmlns="http://www.w3.org/2000/svg">
<circle cx="73.5" cy="73.5" r="73" fill="#C2DADE" fill-opacity="0.05" stroke="#4BCEE5"/>
<circle cx="168.5" cy="73.5" r="73" fill="#E0D1B7" fill-opacity="0.09" stroke="#E5AA4B"/>
<path d="M48.642 85V63.1818H51.2841V82.6562H61.4261V85H48.642ZM65.1761 85V68.6364H67.6903V85H65.1761ZM66.4545 65.9091C65.9645 65.9091 65.5419 65.7422 65.1868 65.4084C64.8388 65.0746 64.6648 64.6733 64.6648 64.2045C64.6648 63.7358 64.8388 63.3345 65.1868 63.0007C65.5419 62.6669 65.9645 62.5 66.4545 62.5C66.9446 62.5 67.3636 62.6669 67.7116 63.0007C68.0668 63.3345 68.2443 63.7358 68.2443 64.2045C68.2443 64.6733 68.0668 65.0746 67.7116 65.4084C67.3636 65.7422 66.9446 65.9091 66.4545 65.9091ZM72.2953 91.1364V68.6364H74.7243V71.2358H75.0225C75.2072 70.9517 75.4629 70.5895 75.7896 70.1491C76.1234 69.7017 76.5993 69.304 77.2172 68.956C77.8422 68.6009 78.6873 68.4233 79.7527 68.4233C81.1305 68.4233 82.345 68.7678 83.3961 69.4567C84.4473 70.1456 85.2676 71.1222 85.8571 72.3864C86.4466 73.6506 86.7413 75.142 86.7413 76.8608C86.7413 78.5938 86.4466 80.0959 85.8571 81.3672C85.2676 82.6314 84.4508 83.6115 83.4068 84.3075C82.3627 84.9964 81.1589 85.3409 79.7953 85.3409C78.7441 85.3409 77.9025 85.1669 77.2704 84.8189C76.6383 84.4638 76.1518 84.0625 75.8109 83.6151C75.47 83.1605 75.2072 82.7841 75.0225 82.4858H74.8095V91.1364H72.2953ZM74.7669 76.8182C74.7669 78.054 74.948 79.1442 75.3102 80.0888C75.6724 81.0263 76.2015 81.7614 76.8975 82.294C77.5936 82.8196 78.4458 83.0824 79.4544 83.0824C80.5055 83.0824 81.3826 82.8054 82.0858 82.2514C82.796 81.6903 83.3287 80.9375 83.6838 79.9929C84.046 79.0412 84.2271 77.983 84.2271 76.8182C84.2271 75.6676 84.0495 74.6307 83.6944 73.7074C83.3464 72.777 82.8173 72.0419 82.1071 71.5021C81.4039 70.9553 80.5197 70.6818 79.4544 70.6818C78.4316 70.6818 77.5723 70.9411 76.8762 71.4595C76.1802 71.9709 75.6547 72.6882 75.2995 73.6115C74.9444 74.5277 74.7669 75.5966 74.7669 76.8182ZM90.5765 85V68.6364H93.0907V85H90.5765ZM91.8549 65.9091C91.3649 65.9091 90.9423 65.7422 90.5872 65.4084C90.2392 65.0746 90.0652 64.6733 90.0652 64.2045C90.0652 63.7358 90.2392 63.3345 90.5872 63.0007C90.9423 62.6669 91.3649 62.5 91.8549 62.5C92.345 62.5 92.764 62.6669 93.112 63.0007C93.4672 63.3345 93.6447 63.7358 93.6447 64.2045C93.6447 64.6733 93.4672 65.0746 93.112 65.4084C92.764 65.7422 92.345 65.9091 91.8549 65.9091Z" fill="#E5AA4B"/>
<path d="M115.593 70H112.951C112.795 69.2401 112.522 68.5724 112.131 67.9972C111.748 67.4219 111.279 66.9389 110.725 66.5483C110.178 66.1506 109.571 65.8523 108.903 65.6534C108.235 65.4545 107.539 65.3551 106.815 65.3551C105.494 65.3551 104.297 65.6889 103.225 66.3565C102.159 67.0241 101.311 68.0078 100.679 69.3075C100.054 70.6072 99.7411 72.2017 99.7411 74.0909C99.7411 75.9801 100.054 77.5746 100.679 78.8743C101.311 80.174 102.159 81.1577 103.225 81.8253C104.297 82.4929 105.494 82.8267 106.815 82.8267C107.539 82.8267 108.235 82.7273 108.903 82.5284C109.571 82.3295 110.178 82.0348 110.725 81.6442C111.279 81.2464 111.748 80.7599 112.131 80.1847C112.522 79.6023 112.795 78.9347 112.951 78.1818H115.593C115.395 79.2969 115.032 80.2947 114.507 81.1754C113.981 82.0561 113.328 82.8054 112.547 83.4233C111.765 84.0341 110.888 84.4993 109.915 84.8189C108.949 85.1385 107.916 85.2983 106.815 85.2983C104.954 85.2983 103.299 84.8438 101.85 83.9347C100.402 83.0256 99.2617 81.733 98.4308 80.0568C97.5998 78.3807 97.1843 76.392 97.1843 74.0909C97.1843 71.7898 97.5998 69.8011 98.4308 68.125C99.2617 66.4489 100.402 65.1562 101.85 64.2472C103.299 63.3381 104.954 62.8835 106.815 62.8835C107.916 62.8835 108.949 63.0433 109.915 63.3629C110.888 63.6825 111.765 64.1513 112.547 64.7692C113.328 65.38 113.981 66.1257 114.507 67.0064C115.032 67.88 115.395 68.8778 115.593 70ZM122.036 75.1562V85H119.522V63.1818H122.036V71.1932H122.249C122.633 70.348 123.208 69.6768 123.975 69.1797C124.749 68.6754 125.779 68.4233 127.064 68.4233C128.18 68.4233 129.156 68.647 129.994 69.0945C130.832 69.5348 131.482 70.2131 131.944 71.1293C132.412 72.0384 132.647 73.196 132.647 74.6023V85H130.133V74.7727C130.133 73.473 129.795 72.468 129.121 71.7578C128.453 71.0405 127.526 70.6818 126.34 70.6818C125.516 70.6818 124.778 70.8558 124.124 71.2038C123.478 71.5518 122.966 72.0597 122.59 72.7273C122.221 73.3949 122.036 74.2045 122.036 75.1562ZM142.062 85.3835C141.025 85.3835 140.084 85.1882 139.239 84.7976C138.393 84.3999 137.722 83.8281 137.225 83.0824C136.728 82.3295 136.479 81.4205 136.479 80.3551C136.479 79.4176 136.664 78.6577 137.033 78.0753C137.403 77.4858 137.896 77.0241 138.514 76.6903C139.132 76.3565 139.814 76.108 140.56 75.9446C141.313 75.7741 142.069 75.6392 142.829 75.5398C143.823 75.4119 144.629 75.3161 145.247 75.2521C145.872 75.1811 146.327 75.0639 146.611 74.9006C146.902 74.7372 147.048 74.4531 147.048 74.0483V73.9631C147.048 72.9119 146.76 72.0952 146.185 71.5128C145.616 70.9304 144.754 70.6392 143.596 70.6392C142.396 70.6392 141.455 70.902 140.773 71.4276C140.091 71.9531 139.612 72.5142 139.335 73.1108L136.948 72.2585C137.374 71.2642 137.942 70.4901 138.653 69.9361C139.37 69.375 140.151 68.9844 140.996 68.7642C141.849 68.5369 142.687 68.4233 143.511 68.4233C144.036 68.4233 144.64 68.4872 145.322 68.6151C146.011 68.7358 146.675 68.9879 147.314 69.3714C147.96 69.755 148.496 70.3338 148.923 71.108C149.349 71.8821 149.562 72.919 149.562 74.2188V85H147.048V82.7841H146.92C146.749 83.1392 146.465 83.5192 146.067 83.924C145.67 84.3288 145.141 84.6733 144.48 84.9574C143.82 85.2415 143.013 85.3835 142.062 85.3835ZM142.445 83.125C143.44 83.125 144.278 82.9297 144.96 82.5391C145.648 82.1484 146.167 81.6442 146.515 81.0263C146.87 80.4084 147.048 79.7585 147.048 79.0767V76.7756C146.941 76.9034 146.707 77.0206 146.344 77.1271C145.989 77.2266 145.577 77.3153 145.109 77.3935C144.647 77.4645 144.196 77.5284 143.756 77.5852C143.322 77.6349 142.971 77.6776 142.701 77.7131C142.048 77.7983 141.437 77.9368 140.869 78.1286C140.308 78.3132 139.853 78.5937 139.505 78.9702C139.164 79.3395 138.994 79.8437 138.994 80.483C138.994 81.3565 139.317 82.017 139.963 82.4645C140.616 82.9048 141.444 83.125 142.445 83.125ZM156.494 79.0341L156.452 75.9233H156.963L164.122 68.6364H167.233L159.605 76.3494H159.392L156.494 79.0341ZM154.151 85V63.1818H156.665V85H154.151ZM164.548 85L158.156 76.9034L159.946 75.1562L167.744 85H164.548ZM170.469 85V68.6364H172.898V71.108H173.069C173.367 70.2983 173.907 69.6413 174.688 69.1371C175.469 68.6328 176.35 68.3807 177.33 68.3807C177.515 68.3807 177.745 68.3842 178.022 68.3913C178.299 68.3984 178.509 68.4091 178.651 68.4233V70.9801C178.566 70.9588 178.37 70.9268 178.065 70.8842C177.767 70.8345 177.451 70.8097 177.117 70.8097C176.321 70.8097 175.611 70.9766 174.986 71.3104C174.368 71.6371 173.878 72.0916 173.516 72.674C173.161 73.2493 172.983 73.9062 172.983 74.6449V85H170.469ZM186.447 85.3835C185.41 85.3835 184.469 85.1882 183.623 84.7976C182.778 84.3999 182.107 83.8281 181.61 83.0824C181.113 82.3295 180.864 81.4205 180.864 80.3551C180.864 79.4176 181.049 78.6577 181.418 78.0753C181.787 77.4858 182.281 77.0241 182.899 76.6903C183.517 76.3565 184.199 76.108 184.944 75.9446C185.697 75.7741 186.454 75.6392 187.214 75.5398C188.208 75.4119 189.014 75.3161 189.632 75.2521C190.257 75.1811 190.711 75.0639 190.996 74.9006C191.287 74.7372 191.432 74.4531 191.432 74.0483V73.9631C191.432 72.9119 191.145 72.0952 190.569 71.5128C190.001 70.9304 189.138 70.6392 187.981 70.6392C186.78 70.6392 185.839 70.902 185.157 71.4276C184.476 71.9531 183.996 72.5142 183.719 73.1108L181.333 72.2585C181.759 71.2642 182.327 70.4901 183.037 69.9361C183.755 69.375 184.536 68.9844 185.381 68.7642C186.233 68.5369 187.072 68.4233 187.895 68.4233C188.421 68.4233 189.025 68.4872 189.706 68.6151C190.395 68.7358 191.059 68.9879 191.699 69.3714C192.345 69.755 192.881 70.3338 193.307 71.108C193.733 71.8821 193.947 72.919 193.947 74.2188V85H191.432V82.7841H191.305C191.134 83.1392 190.85 83.5192 190.452 83.924C190.055 84.3288 189.525 84.6733 188.865 84.9574C188.204 85.2415 187.398 85.3835 186.447 85.3835ZM186.83 83.125C187.824 83.125 188.662 82.9297 189.344 82.5391C190.033 82.1484 190.552 81.6442 190.9 81.0263C191.255 80.4084 191.432 79.7585 191.432 79.0767V76.7756C191.326 76.9034 191.091 77.0206 190.729 77.1271C190.374 77.2266 189.962 77.3153 189.493 77.3935C189.032 77.4645 188.581 77.5284 188.14 77.5852C187.707 77.6349 187.356 77.6776 187.086 77.7131C186.432 77.7983 185.822 77.9368 185.253 78.1286C184.692 78.3132 184.238 78.5937 183.89 78.9702C183.549 79.3395 183.378 79.8437 183.378 80.483C183.378 81.3565 183.702 82.017 184.348 82.4645C185.001 82.9048 185.829 83.125 186.83 83.125Z" fill="#4BCEE5"/>
</svg>
